<svg xmlns="http://www.w3.org/2000/svg" xmlns:xlink="http://www.w3.org/1999/xlink" width="1600" zoomAndPan="magnify" viewBox="0 0 1200 675.000002" height="900" preserveAspectRatio="xMidYMid meet" version="1.0"><defs><g/><clipPath id="219d29e9f6"><path d="M 0.886719 0 L 1199.113281 0 L 1199.113281 674 L 0.886719 674 Z M 0.886719 0 " clip-rule="nonzero"/></clipPath></defs><g clip-path="url(#219d29e9f6)"><path fill="#ffffff" d="M 0.886719 0 L 1199.113281 0 L 1199.113281 674 L 0.886719 674 Z M 0.886719 0 " fill-opacity="1" fill-rule="nonzero"/><path fill="#ffffff" d="M 0.886719 0 L 1199.113281 0 L 1199.113281 674 L 0.886719 674 Z M 0.886719 0 " fill-opacity="1" fill-rule="nonzero"/></g><g fill="#000000" fill-opacity="1"><g transform="translate(189.62257, 391.096951)"><g><path d="M 139.984375 -153.40625 L 139.984375 -139.984375 L 2.875 -139.984375 L 2.875 -153.40625 Z M 2.875 -115.828125 L 2.875 -129.25 L 65.78125 -129.25 L 65.78125 0 L 50.4375 0 L 50.4375 -115.828125 Z M 139.984375 -129.25 L 139.984375 -115.828125 L 92.625 -115.828125 L 92.625 0 L 77.28125 0 L 77.28125 -129.25 Z M 139.984375 -129.25 "/></g></g></g><g fill="#000000" fill-opacity="1"><g transform="translate(355.683666, 391.096951)"><g><path d="M 23.015625 -38.359375 L 23.015625 0 L 7.671875 0 L 7.671875 -38.359375 Z M 49.859375 -38.359375 L 49.859375 0 L 34.515625 0 L 34.515625 -38.359375 Z M 49.859375 -38.359375 "/></g></g></g><g fill="#000000" fill-opacity="1"><g transform="translate(436.414574, 391.096951)"><g><path d="M 86.296875 -153.40625 C 105.472656 -153.40625 119.851562 -149.441406 129.4375 -141.515625 C 139.03125 -133.597656 143.828125 -121.835938 143.828125 -106.234375 C 143.828125 -94.859375 141.75 -85.363281 137.59375 -77.75 C 133.4375 -70.144531 127.078125 -64.363281 118.515625 -60.40625 L 143.828125 0 L 127.71875 0 L 100.875 -68.453125 C 110.207031 -70.242188 117.078125 -74.144531 121.484375 -80.15625 C 125.890625 -86.164062 128.09375 -94.476562 128.09375 -105.09375 C 128.09375 -116.976562 124.414062 -125.765625 117.0625 -131.453125 C 109.71875 -137.140625 98.117188 -139.984375 82.265625 -139.984375 L 26.84375 -139.984375 L 26.84375 0 L 11.5 0 L 11.5 -153.40625 Z M 85.140625 -129.25 C 95.367188 -129.25 103.101562 -127.140625 108.34375 -122.921875 C 113.582031 -118.703125 116.203125 -112.4375 116.203125 -104.125 C 116.203125 -95.175781 113.707031 -88.460938 108.71875 -83.984375 C 103.738281 -79.515625 96.132812 -77.28125 85.90625 -77.28125 L 38.359375 -77.28125 L 38.359375 -129.25 Z M 85.53125 -90.703125 C 90.507812 -90.703125 94.242188 -91.820312 96.734375 -94.0625 C 99.234375 -96.300781 100.484375 -99.59375 100.484375 -103.9375 C 100.484375 -111.863281 95.5 -115.828125 85.53125 -115.828125 L 52.734375 -115.828125 L 52.734375 -90.703125 Z M 81.6875 -66.734375 C 83.863281 -66.734375 86.742188 -66.863281 90.328125 -67.125 L 115.4375 0 L 99.53125 0 L 80.546875 -53.3125 L 53.6875 -53.3125 L 53.6875 0 L 38.359375 0 L 38.359375 -66.734375 Z M 81.6875 -66.734375 "/></g></g></g><g fill="#000000" fill-opacity="1"><g transform="translate(610.52931, 391.096951)"><g><path d="M 23.015625 -38.359375 L 23.015625 0 L 7.671875 0 L 7.671875 -38.359375 Z M 49.859375 -38.359375 L 49.859375 0 L 34.515625 0 L 34.515625 -38.359375 Z M 49.859375 -38.359375 "/></g></g></g><g fill="#000000" fill-opacity="1"><g transform="translate(691.260193, 391.096951)"><g><path d="M 66.546875 -153.40625 L 15.53125 0 L 0.953125 0 L 52.734375 -153.40625 Z M 97.03125 -153.40625 L 149 0 L 134.421875 0 L 83.21875 -153.40625 Z M 106.4375 -46.984375 L 43.53125 -46.984375 L 74.984375 -145.9375 Z M 74.984375 -105.09375 L 61.359375 -60.40625 L 88.59375 -60.40625 Z M 109.875 -36.25 L 122.53125 0 L 107.765625 0 L 100.296875 -22.8125 L 49.671875 -22.8125 L 42.1875 0 L 27.421875 0 L 40.078125 -36.25 Z M 109.875 -36.25 "/></g></g></g><g fill="#000000" fill-opacity="1"><g transform="translate(864.416131, 391.096951)"><g><path d="M 23.015625 -38.359375 L 23.015625 0 L 7.671875 0 L 7.671875 -38.359375 Z M 49.859375 -38.359375 L 49.859375 0 L 34.515625 0 L 34.515625 -38.359375 Z M 49.859375 -38.359375 "/></g></g></g><g fill="#000000" fill-opacity="1"><g transform="translate(945.147014, 391.096951)"><g><path d="M 26.84375 -153.40625 L 26.84375 0 L 11.5 0 L 11.5 -153.40625 Z M 53.6875 -153.40625 L 53.6875 0 L 38.359375 0 L 38.359375 -153.40625 Z M 53.6875 -153.40625 "/></g></g></g><path fill="#000000" d="M 179.417969 441.339844 L 1020.582031 441.339844 L 1020.582031 483.125 L 179.417969 483.125 L 179.417969 441.339844 " fill-opacity="1" fill-rule="nonzero"/><g fill="#ffffff" fill-opacity="1"><g transform="translate(196.302533, 470.844806)"><g><path d="M 13.71875 -17.109375 L 13.71875 -14.265625 L 8.78125 -14.265625 L 8.78125 0 L 5.40625 0 L 5.40625 -14.265625 L 0.46875 -14.265625 L 0.46875 -17.109375 Z M 13.71875 -17.109375 "/></g></g></g><g fill="#ffffff" fill-opacity="1"><g transform="translate(225.079024, 470.844806)"><g><path d="M 13.265625 -10.671875 L 13.265625 -17.109375 L 16.640625 -17.109375 L 16.640625 0 L 13.265625 0 L 13.265625 -7.796875 L 5.609375 -7.796875 L 5.609375 0 L 2.21875 0 L 2.21875 -17.109375 L 5.609375 -17.109375 L 5.609375 -10.671875 Z M 13.265625 -10.671875 "/></g></g></g><g fill="#ffffff" fill-opacity="1"><g transform="translate(258.547783, 470.844806)"><g><path d="M 5.609375 -7.515625 L 5.609375 -2.828125 L 13.78125 -2.828125 L 13.78125 0 L 2.21875 0 L 2.21875 -17.109375 L 13.59375 -17.109375 L 13.59375 -14.28125 L 5.609375 -14.28125 L 5.609375 -10.28125 L 12.578125 -10.28125 L 12.578125 -7.515625 Z M 5.609375 -7.515625 "/></g></g></g><g fill="#ffffff" fill-opacity="1"><g transform="translate(287.850838, 470.844806)"><g/></g></g><g fill="#ffffff" fill-opacity="1"><g transform="translate(308.096998, 470.844806)"><g><path d="M 2.21875 0 L 2.21875 -17.109375 L 9.09375 -17.109375 C 10.863281 -17.109375 12.195312 -16.703125 13.09375 -15.890625 C 14 -15.078125 14.453125 -13.953125 14.453125 -12.515625 C 14.453125 -11.472656 14.1875 -10.617188 13.65625 -9.953125 C 13.132812 -9.296875 12.351562 -8.789062 11.3125 -8.4375 L 11.3125 -8.1875 C 11.84375 -7.957031 12.273438 -7.609375 12.609375 -7.140625 C 12.941406 -6.679688 13.253906 -6.003906 13.546875 -5.109375 L 15.265625 0 L 11.78125 0 L 10.109375 -5.109375 C 9.941406 -5.628906 9.75 -6.03125 9.53125 -6.3125 C 9.3125 -6.59375 9.035156 -6.796875 8.703125 -6.921875 C 8.378906 -7.054688 7.953125 -7.125 7.421875 -7.125 L 5.609375 -7.125 L 5.609375 0 Z M 8.6875 -9.8125 C 10.320312 -9.8125 11.140625 -10.570312 11.140625 -12.09375 C 11.140625 -13.65625 10.320312 -14.4375 8.6875 -14.4375 L 5.609375 -14.4375 L 5.609375 -9.8125 Z M 8.6875 -9.8125 "/></g></g></g><g fill="#ffffff" fill-opacity="1"><g transform="translate(338.687214, 470.844806)"><g><path d="M 5.609375 -7.515625 L 5.609375 -2.828125 L 13.78125 -2.828125 L 13.78125 0 L 2.21875 0 L 2.21875 -17.109375 L 13.59375 -17.109375 L 13.59375 -14.28125 L 5.609375 -14.28125 L 5.609375 -10.28125 L 12.578125 -10.28125 L 12.578125 -7.515625 Z M 5.609375 -7.515625 "/></g></g></g><g fill="#ffffff" fill-opacity="1"><g transform="translate(367.990275, 470.844806)"><g><path d="M 9.34375 0.25 C 7.769531 0.25 6.378906 -0.078125 5.171875 -0.734375 C 3.972656 -1.390625 3.035156 -2.375 2.359375 -3.6875 C 1.679688 -5.007812 1.34375 -6.632812 1.34375 -8.5625 C 1.34375 -10.488281 1.679688 -12.109375 2.359375 -13.421875 C 3.035156 -14.734375 3.972656 -15.71875 5.171875 -16.375 C 6.378906 -17.03125 7.769531 -17.359375 9.34375 -17.359375 C 11 -17.359375 12.398438 -17.035156 13.546875 -16.390625 C 14.691406 -15.742188 15.515625 -14.765625 16.015625 -13.453125 L 13.546875 -11.9375 L 13.25 -11.953125 C 12.882812 -12.835938 12.382812 -13.472656 11.75 -13.859375 C 11.125 -14.242188 10.320312 -14.4375 9.34375 -14.4375 C 7.925781 -14.4375 6.816406 -13.96875 6.015625 -13.03125 C 5.222656 -12.09375 4.828125 -10.601562 4.828125 -8.5625 C 4.828125 -6.519531 5.222656 -5.03125 6.015625 -4.09375 C 6.816406 -3.15625 7.925781 -2.6875 9.34375 -2.6875 C 11.570312 -2.6875 12.9375 -3.765625 13.4375 -5.921875 L 13.734375 -5.921875 L 16.21875 -4.625 C 15.75 -3 14.945312 -1.78125 13.8125 -0.96875 C 12.6875 -0.15625 11.195312 0.25 9.34375 0.25 Z M 9.34375 0.25 "/></g></g></g><g fill="#ffffff" fill-opacity="1"><g transform="translate(399.364487, 470.844806)"><g><path d="M 2.21875 0 L 2.21875 -17.109375 L 9.09375 -17.109375 C 10.863281 -17.109375 12.195312 -16.703125 13.09375 -15.890625 C 14 -15.078125 14.453125 -13.953125 14.453125 -12.515625 C 14.453125 -11.472656 14.1875 -10.617188 13.65625 -9.953125 C 13.132812 -9.296875 12.351562 -8.789062 11.3125 -8.4375 L 11.3125 -8.1875 C 11.84375 -7.957031 12.273438 -7.609375 12.609375 -7.140625 C 12.941406 -6.679688 13.253906 -6.003906 13.546875 -5.109375 L 15.265625 0 L 11.78125 0 L 10.109375 -5.109375 C 9.941406 -5.628906 9.75 -6.03125 9.53125 -6.3125 C 9.3125 -6.59375 9.035156 -6.796875 8.703125 -6.921875 C 8.378906 -7.054688 7.953125 -7.125 7.421875 -7.125 L 5.609375 -7.125 L 5.609375 0 Z M 8.6875 -9.8125 C 10.320312 -9.8125 11.140625 -10.570312 11.140625 -12.09375 C 11.140625 -13.65625 10.320312 -14.4375 8.6875 -14.4375 L 5.609375 -14.4375 L 5.609375 -9.8125 Z M 8.6875 -9.8125 "/></g></g></g><g fill="#ffffff" fill-opacity="1"><g transform="translate(429.954703, 470.844806)"><g><path d="M 9.0625 0.25 C 6.707031 0.25 4.960938 -0.304688 3.828125 -1.421875 C 2.691406 -2.546875 2.125 -4.207031 2.125 -6.40625 L 2.125 -17.109375 L 5.4375 -17.109375 L 5.4375 -6.4375 C 5.4375 -5.1875 5.734375 -4.25 6.328125 -3.625 C 6.929688 -3 7.84375 -2.6875 9.0625 -2.6875 C 11.488281 -2.6875 12.703125 -3.9375 12.703125 -6.4375 L 12.703125 -17.109375 L 16.015625 -17.109375 L 16.015625 -6.40625 C 16.015625 -4.207031 15.445312 -2.546875 14.3125 -1.421875 C 13.175781 -0.304688 11.425781 0.25 9.0625 0.25 Z M 9.0625 0.25 "/></g></g></g><g fill="#ffffff" fill-opacity="1"><g transform="translate(462.686278, 470.844806)"><g><path d="M 5.609375 0 L 2.21875 0 L 2.21875 -17.109375 L 5.609375 -17.109375 Z M 5.609375 0 "/></g></g></g><g fill="#ffffff" fill-opacity="1"><g transform="translate(485.120609, 470.844806)"><g><path d="M 13.71875 -17.109375 L 13.71875 -14.265625 L 8.78125 -14.265625 L 8.78125 0 L 5.40625 0 L 5.40625 -14.265625 L 0.46875 -14.265625 L 0.46875 -17.109375 Z M 13.71875 -17.109375 "/></g></g></g><g fill="#ffffff" fill-opacity="1"><g transform="translate(513.897106, 470.844806)"><g><path d="M 5.328125 0 L 2.21875 0 L 2.21875 -17.109375 L 6.640625 -17.109375 L 10.984375 -4.53125 L 11.21875 -4.53125 L 15.53125 -17.109375 L 19.84375 -17.109375 L 19.84375 0 L 16.640625 0 L 16.640625 -11.3125 L 16.34375 -11.359375 L 12.390625 0 L 9.578125 0 L 5.625 -11.359375 L 5.328125 -11.3125 Z M 5.328125 0 "/></g></g></g><g fill="#ffffff" fill-opacity="1"><g transform="translate(550.572058, 470.844806)"><g><path d="M 5.609375 -7.515625 L 5.609375 -2.828125 L 13.78125 -2.828125 L 13.78125 0 L 2.21875 0 L 2.21875 -17.109375 L 13.59375 -17.109375 L 13.59375 -14.28125 L 5.609375 -14.28125 L 5.609375 -10.28125 L 12.578125 -10.28125 L 12.578125 -7.515625 Z M 5.609375 -7.515625 "/></g></g></g><g fill="#ffffff" fill-opacity="1"><g transform="translate(579.875119, 470.844806)"><g><path d="M 5.5 0 L 2.21875 0 L 2.21875 -17.109375 L 6.09375 -17.109375 L 12.96875 -6.078125 L 13.265625 -6.125 L 13.265625 -17.109375 L 16.53125 -17.109375 L 16.53125 0 L 13.0625 0 L 5.796875 -11.78125 L 5.5 -11.734375 Z M 5.5 0 "/></g></g></g><g fill="#ffffff" fill-opacity="1"><g transform="translate(613.226846, 470.844806)"><g><path d="M 13.71875 -17.109375 L 13.71875 -14.265625 L 8.78125 -14.265625 L 8.78125 0 L 5.40625 0 L 5.40625 -14.265625 L 0.46875 -14.265625 L 0.46875 -17.109375 Z M 13.71875 -17.109375 "/></g></g></g><g fill="#ffffff" fill-opacity="1"><g transform="translate(642.00332, 470.844806)"><g/></g></g><g fill="#ffffff" fill-opacity="1"><g transform="translate(662.249463, 470.844806)"><g><path d="M 16.421875 0 L 12.859375 0 L 11.578125 -3.9375 L 5.015625 -3.9375 L 3.734375 0 L 0.25 0 L 6.171875 -17.109375 L 10.515625 -17.109375 Z M 8.140625 -13.546875 L 5.9375 -6.78125 L 10.640625 -6.78125 L 8.421875 -13.546875 Z M 8.140625 -13.546875 "/></g></g></g><g fill="#ffffff" fill-opacity="1"><g transform="translate(693.518339, 470.844806)"><g><path d="M 8.3125 0.25 C 6.882812 0.25 5.648438 -0.0703125 4.609375 -0.71875 C 3.566406 -1.375 2.757812 -2.359375 2.1875 -3.671875 C 1.625 -4.992188 1.34375 -6.625 1.34375 -8.5625 C 1.34375 -10.507812 1.679688 -12.140625 2.359375 -13.453125 C 3.035156 -14.765625 3.976562 -15.742188 5.1875 -16.390625 C 6.394531 -17.035156 7.796875 -17.359375 9.390625 -17.359375 C 11.023438 -17.359375 12.421875 -17.050781 13.578125 -16.4375 C 14.734375 -15.832031 15.546875 -14.929688 16.015625 -13.734375 L 13.546875 -12.234375 L 13.25 -12.234375 C 12.894531 -13.003906 12.398438 -13.5625 11.765625 -13.90625 C 11.128906 -14.257812 10.335938 -14.4375 9.390625 -14.4375 C 7.910156 -14.4375 6.78125 -13.96875 6 -13.03125 C 5.21875 -12.101562 4.828125 -10.613281 4.828125 -8.5625 C 4.828125 -6.488281 5.191406 -4.984375 5.921875 -4.046875 C 6.648438 -3.109375 7.726562 -2.640625 9.15625 -2.640625 C 10.394531 -2.640625 11.304688 -2.914062 11.890625 -3.46875 C 12.472656 -4.03125 12.765625 -4.859375 12.765625 -5.953125 L 12.765625 -6.6875 L 8.71875 -6.6875 L 8.71875 -9.4375 L 16.125 -9.4375 L 16.125 0 L 12.890625 0 L 12.890625 -2.296875 L 12.65625 -2.328125 C 12.300781 -1.503906 11.765625 -0.867188 11.046875 -0.421875 C 10.335938 0.0234375 9.425781 0.25 8.3125 0.25 Z M 8.3125 0.25 "/></g></g></g><g fill="#ffffff" fill-opacity="1"><g transform="translate(725.957355, 470.844806)"><g><path d="M 5.609375 -7.515625 L 5.609375 -2.828125 L 13.78125 -2.828125 L 13.78125 0 L 2.21875 0 L 2.21875 -17.109375 L 13.59375 -17.109375 L 13.59375 -14.28125 L 5.609375 -14.28125 L 5.609375 -10.28125 L 12.578125 -10.28125 L 12.578125 -7.515625 Z M 5.609375 -7.515625 "/></g></g></g><g fill="#ffffff" fill-opacity="1"><g transform="translate(755.260393, 470.844806)"><g><path d="M 5.5 0 L 2.21875 0 L 2.21875 -17.109375 L 6.09375 -17.109375 L 12.96875 -6.078125 L 13.265625 -6.125 L 13.265625 -17.109375 L 16.53125 -17.109375 L 16.53125 0 L 13.0625 0 L 5.796875 -11.78125 L 5.5 -11.734375 Z M 5.5 0 "/></g></g></g><g fill="#ffffff" fill-opacity="1"><g transform="translate(788.61212, 470.844806)"><g><path d="M 9.34375 0.25 C 7.769531 0.25 6.378906 -0.078125 5.171875 -0.734375 C 3.972656 -1.390625 3.035156 -2.375 2.359375 -3.6875 C 1.679688 -5.007812 1.34375 -6.632812 1.34375 -8.5625 C 1.34375 -10.488281 1.679688 -12.109375 2.359375 -13.421875 C 3.035156 -14.734375 3.972656 -15.71875 5.171875 -16.375 C 6.378906 -17.03125 7.769531 -17.359375 9.34375 -17.359375 C 11 -17.359375 12.398438 -17.035156 13.546875 -16.390625 C 14.691406 -15.742188 15.515625 -14.765625 16.015625 -13.453125 L 13.546875 -11.9375 L 13.25 -11.953125 C 12.882812 -12.835938 12.382812 -13.472656 11.75 -13.859375 C 11.125 -14.242188 10.320312 -14.4375 9.34375 -14.4375 C 7.925781 -14.4375 6.816406 -13.96875 6.015625 -13.03125 C 5.222656 -12.09375 4.828125 -10.601562 4.828125 -8.5625 C 4.828125 -6.519531 5.222656 -5.03125 6.015625 -4.09375 C 6.816406 -3.15625 7.925781 -2.6875 9.34375 -2.6875 C 11.570312 -2.6875 12.9375 -3.765625 13.4375 -5.921875 L 13.734375 -5.921875 L 16.21875 -4.625 C 15.75 -3 14.945312 -1.78125 13.8125 -0.96875 C 12.6875 -0.15625 11.195312 0.25 9.34375 0.25 Z M 9.34375 0.25 "/></g></g></g><g fill="#ffffff" fill-opacity="1"><g transform="translate(819.986308, 470.844806)"><g><path d="M 9.375 0 L 6 0 L 6 -6.71875 L 0.078125 -17.109375 L 3.703125 -17.109375 L 7.625 -10.375 L 7.90625 -10.375 L 11.734375 -17.109375 L 15.28125 -17.109375 L 9.375 -6.71875 Z M 9.375 0 "/></g></g></g><g fill="#ffffff" fill-opacity="1"><g transform="translate(849.944625, 470.844806)"><g/></g></g><g fill="#ffffff" fill-opacity="1"><g transform="translate(870.190768, 470.844806)"><g><path d="M 5.609375 0 L 2.21875 0 L 2.21875 -17.109375 L 5.609375 -17.109375 Z M 5.609375 0 "/></g></g></g><g fill="#ffffff" fill-opacity="1"><g transform="translate(892.625076, 470.844806)"><g><path d="M 5.5 0 L 2.21875 0 L 2.21875 -17.109375 L 6.09375 -17.109375 L 12.96875 -6.078125 L 13.265625 -6.125 L 13.265625 -17.109375 L 16.53125 -17.109375 L 16.53125 0 L 13.0625 0 L 5.796875 -11.78125 L 5.5 -11.734375 Z M 5.5 0 "/></g></g></g><g fill="#ffffff" fill-opacity="1"><g transform="translate(925.976803, 470.844806)"><g><path d="M 8.375 -17.109375 C 11.15625 -17.109375 13.273438 -16.390625 14.734375 -14.953125 C 16.203125 -13.515625 16.9375 -11.382812 16.9375 -8.5625 C 16.9375 -5.726562 16.203125 -3.59375 14.734375 -2.15625 C 13.273438 -0.71875 11.15625 0 8.375 0 L 2.21875 0 L 2.21875 -17.109375 Z M 8.1875 -2.84375 C 9.945312 -2.84375 11.265625 -3.289062 12.140625 -4.1875 C 13.015625 -5.09375 13.453125 -6.550781 13.453125 -8.5625 C 13.453125 -10.5625 13.015625 -12.007812 12.140625 -12.90625 C 11.265625 -13.8125 9.945312 -14.265625 8.1875 -14.265625 L 5.609375 -14.265625 L 5.609375 -2.84375 Z M 8.1875 -2.84375 "/></g></g></g><g fill="#ffffff" fill-opacity="1"><g transform="translate(958.860473, 470.844806)"><g><path d="M 5.609375 -7.515625 L 5.609375 -2.828125 L 13.78125 -2.828125 L 13.78125 0 L 2.21875 0 L 2.21875 -17.109375 L 13.59375 -17.109375 L 13.59375 -14.28125 L 5.609375 -14.28125 L 5.609375 -10.28125 L 12.578125 -10.28125 L 12.578125 -7.515625 Z M 5.609375 -7.515625 "/></g></g></g><g fill="#ffffff" fill-opacity="1"><g transform="translate(988.163557, 470.844806)"><g><path d="M 3.75 0 L 0.296875 0 L 5.359375 -8.796875 L 0.53125 -17.109375 L 4.125 -17.109375 L 7.671875 -10.984375 L 7.96875 -10.984375 L 11.578125 -17.109375 L 14.984375 -17.109375 L 10.171875 -8.796875 L 15.234375 0 L 11.65625 0 L 7.859375 -6.59375 L 7.5625 -6.59375 Z M 3.75 0 "/></g></g></g></svg>